<svg class="animated" id="freepik_stories-music" xmlns="http://www.w3.org/2000/svg" viewBox="0 0 500 500" version="1.1" xmlns:xlink="http://www.w3.org/1999/xlink" xmlns:svgjs="http://svgjs.com/svgjs"><style>svg#freepik_stories-music:not(.animated) .animable {opacity: 0;}svg#freepik_stories-music.animated #freepik--background-complete--inject-40 {animation: 1s 1 forwards ease-in lightSpeedLeft;animation-delay: 0s;}svg#freepik_stories-music.animated #freepik--musical-notes--inject-40 {animation: 3s Infinite  linear floating;animation-delay: 0s;}svg#freepik_stories-music.animated #freepik--Character--inject-40 {animation: 1.5s Infinite  linear wind;animation-delay: 0s;}            @keyframes lightSpeedLeft {              from {                transform: translate3d(-50%, 0, 0) skewX(20deg);                opacity: 0;              }              60% {                transform: skewX(-10deg);                opacity: 1;              }              80% {                transform: skewX(2deg);              }              to {                opacity: 1;                transform: translate3d(0, 0, 0);              }            }                    @keyframes floating {                0% {                    opacity: 1;                    transform: translateY(0px);                }                50% {                    transform: translateY(-10px);                }                100% {                    opacity: 1;                    transform: translateY(0px);                }            }                    @keyframes wind {                0% {                    transform: rotate( 0deg );                }                25% {                    transform: rotate( 1deg );                }                75% {                    transform: rotate( -1deg );                }            }        </style><g id="freepik--background-complete--inject-40" class="animable animator-active" style="transform-origin: 250px 228.23px;"><rect y="382.4" width="500" height="0.25" style="fill: rgb(235, 235, 235); transform-origin: 250px 382.525px;" id="elcr6zrry59u" class="animable"></rect><rect x="52.46" y="398.49" width="33.12" height="0.25" style="fill: rgb(235, 235, 235); transform-origin: 69.02px 398.615px;" id="eli1px8ih8y9e" class="animable"></rect><rect x="171.14" y="401.21" width="8.69" height="0.25" style="fill: rgb(235, 235, 235); transform-origin: 175.485px 401.335px;" id="elpaw5rdwjlfb" class="animable"></rect><rect x="86.58" y="389.21" width="25.42" height="0.25" style="fill: rgb(235, 235, 235); transform-origin: 99.29px 389.335px;" id="elgjbwv7i443u" class="animable"></rect><rect x="422" y="390.89" width="27.9" height="0.25" style="fill: rgb(235, 235, 235); transform-origin: 435.95px 391.015px;" id="elpjks294i0n9" class="animable"></rect><rect x="391.47" y="390.89" width="21.63" height="0.25" style="fill: rgb(235, 235, 235); transform-origin: 402.285px 391.015px;" id="el1etf1ecxr0b" class="animable"></rect><rect x="277.21" y="395.11" width="51.45" height="0.25" style="fill: rgb(235, 235, 235); transform-origin: 302.935px 395.235px;" id="elcrhyfwf9og" class="animable"></rect><path d="M237,337.8H43.91a5.71,5.71,0,0,1-5.7-5.71V60.66A5.71,5.71,0,0,1,43.91,55H237a5.71,5.71,0,0,1,5.71,5.71V332.09A5.71,5.71,0,0,1,237,337.8ZM43.91,55.2a5.46,5.46,0,0,0-5.45,5.46V332.09a5.46,5.46,0,0,0,5.45,5.46H237a5.47,5.47,0,0,0,5.46-5.46V60.66A5.47,5.47,0,0,0,237,55.2Z" style="fill: rgb(235, 235, 235); transform-origin: 140.46px 196.4px;" id="elju0p2pz4jzl" class="animable"></path><path d="M453.31,337.8H260.21a5.72,5.72,0,0,1-5.71-5.71V60.66A5.72,5.72,0,0,1,260.21,55h193.1A5.71,5.71,0,0,1,459,60.66V332.09A5.71,5.71,0,0,1,453.31,337.8ZM260.21,55.2a5.47,5.47,0,0,0-5.46,5.46V332.09a5.47,5.47,0,0,0,5.46,5.46h193.1a5.47,5.47,0,0,0,5.46-5.46V60.66a5.47,5.47,0,0,0-5.46-5.46Z" style="fill: rgb(235, 235, 235); transform-origin: 356.75px 196.4px;" id="elypwdn0n0tr" class="animable"></path><polygon points="70.02 176.93 74.82 176.93 77.87 132.76 71.63 132.76 70.02 176.93" style="fill: rgb(230, 230, 230); transform-origin: 73.945px 154.845px;" id="elkoisgybmmus" class="animable"></polygon><polygon points="72.81 176.93 77.61 176.93 80.66 132.76 75.85 132.76 72.81 176.93" style="fill: rgb(245, 245, 245); transform-origin: 76.735px 154.845px;" id="elywb73x2lz5r" class="animable"></polygon><polygon points="194.44 176.93 199.24 176.93 202.29 132.76 196.05 132.76 194.44 176.93" style="fill: rgb(230, 230, 230); transform-origin: 198.365px 154.845px;" id="el4vqaxemqph6" class="animable"></polygon><polygon points="197.23 176.93 202.03 176.93 205.08 132.76 200.27 132.76 197.23 176.93" style="fill: rgb(245, 245, 245); transform-origin: 201.155px 154.845px;" id="elr223899mlyp" class="animable"></polygon><g id="elihyvxws9rb8"><rect x="58.14" y="125.27" width="32.04" height="7.49" style="fill: rgb(230, 230, 230); transform-origin: 74.16px 129.015px; transform: rotate(180deg);" class="animable"></rect></g><rect x="90.18" y="125.27" width="132.61" height="7.49" style="fill: rgb(245, 245, 245); transform-origin: 156.485px 129.015px;" id="el2ef0s79v822" class="animable"></rect><g id="elw1a5vgqtwyo"><rect x="58.14" y="158.12" width="32.04" height="7.49" style="fill: rgb(230, 230, 230); transform-origin: 74.16px 161.865px; transform: rotate(180deg);" class="animable"></rect></g><rect x="90.18" y="158.12" width="132.61" height="7.49" style="fill: rgb(245, 245, 245); transform-origin: 156.485px 161.865px;" id="elaunx716xbqo" class="animable"></rect><rect x="103.17" y="84.32" width="57.41" height="40.94" rx="9.25" style="fill: rgb(224, 224, 224); transform-origin: 131.875px 104.79px;" id="eltls2z7pohze" class="animable"></rect><path d="M154.43,120.77H115.51a9.75,9.75,0,0,1-9.74-9.75V88.57a9.76,9.76,0,0,1,9.74-9.75h38.92a9.76,9.76,0,0,1,9.75,9.75V111A9.76,9.76,0,0,1,154.43,120.77ZM115.51,79.82a8.76,8.76,0,0,0-8.74,8.75V111a8.76,8.76,0,0,0,8.74,8.75h38.92a8.77,8.77,0,0,0,8.75-8.75V88.57a8.77,8.77,0,0,0-8.75-8.75Z" style="fill: rgb(224, 224, 224); transform-origin: 134.975px 99.795px;" id="el38n3szu2k5c" class="animable"></path><rect x="112.18" y="84.32" width="57.41" height="40.94" rx="9.25" style="fill: rgb(240, 240, 240); transform-origin: 140.885px 104.79px;" id="elytp5em8rel" class="animable"></rect><rect x="109.5" y="104.8" width="60.09" height="1.37" style="fill: rgb(224, 224, 224); transform-origin: 139.545px 105.485px;" id="el0utjfj92ikwo" class="animable"></rect><rect x="109.5" y="111.88" width="60.09" height="1.37" style="fill: rgb(224, 224, 224); transform-origin: 139.545px 112.565px;" id="elszm8c29cgss" class="animable"></rect><g id="el4ri6vkeh7ys"><circle cx="151.89" cy="106.96" r="11.79" style="fill: rgb(224, 224, 224); transform-origin: 151.89px 106.96px; transform: rotate(-8.02deg);" class="animable"></circle></g><g id="el7ww809tp79m"><circle cx="152.68" cy="106.17" r="11.79" style="fill: rgb(245, 245, 245); transform-origin: 152.68px 106.17px; transform: rotate(-37deg);" class="animable"></circle></g><g id="el33pg3i72kre"><circle cx="152.68" cy="106.17" r="9.87" style="fill: rgb(235, 235, 235); transform-origin: 152.68px 106.17px; transform: rotate(-45deg);" class="animable"></circle></g><rect x="73.18" y="245.17" width="26.2" height="133.41" style="fill: rgb(240, 240, 240); transform-origin: 86.28px 311.875px;" id="elkqvt37neer7" class="animable"></rect><rect x="78.21" y="378.58" width="129.2" height="3.81" style="fill: rgb(240, 240, 240); transform-origin: 142.81px 380.485px;" id="el72uhgkp56u7" class="animable"></rect><g id="elnof2etx8hj7"><rect x="99.38" y="245.17" width="113.06" height="133.41" style="fill: rgb(245, 245, 245); transform-origin: 155.91px 311.875px; transform: rotate(180deg);" class="animable"></rect></g><path d="M202.15,261.58v43.76H109.68V261.58H143v.86a2.42,2.42,0,0,0,2.41,2.4h21.07a2.41,2.41,0,0,0,2.4-2.4v-.86Z" style="fill: rgb(224, 224, 224); transform-origin: 155.915px 283.46px;" id="el9odrex1r15" class="animable"></path><path d="M211.73,260.07l-9.58,45.27H109.68l9.59-45.27h33.3l-.18.89a1.92,1.92,0,0,0,1.86,2.48h21.08a3.18,3.18,0,0,0,2.92-2.48l.18-.89Z" style="fill: rgb(235, 235, 235); transform-origin: 160.705px 282.705px;" id="el5dfuijsbqj" class="animable"></path><g id="elo6nz8fuk23"><rect x="109.68" y="318.41" width="92.46" height="43.75" style="fill: rgb(235, 235, 235); transform-origin: 155.91px 340.285px; transform: rotate(180deg);" class="animable"></rect></g><rect x="142.97" y="315.66" width="25.87" height="6" rx="2.4" style="fill: rgb(245, 245, 245); transform-origin: 155.905px 318.66px;" id="elye8jv0vj7k" class="animable"></rect><rect x="160.3" y="212.92" width="19.98" height="5.41" style="fill: rgb(235, 235, 235); transform-origin: 170.29px 215.625px;" id="el093lsccpf64l" class="animable"></rect><rect x="120.97" y="211.52" width="59.31" height="1.4" style="fill: rgb(224, 224, 224); transform-origin: 150.625px 212.22px;" id="elnnhh44iucs" class="animable"></rect><rect x="91.12" y="218.32" width="99.66" height="26.85" style="fill: rgb(240, 240, 240); transform-origin: 140.95px 231.745px;" id="el850k0rz8m36" class="animable"></rect><rect x="98.76" y="216.96" width="84.39" height="1.37" style="fill: rgb(224, 224, 224); transform-origin: 140.955px 217.645px;" id="elsih3hyau7t8" class="animable"></rect><rect x="91.12" y="218.32" width="26.85" height="26.85" style="fill: rgb(224, 224, 224); transform-origin: 104.545px 231.745px;" id="elj3lye1qlwj" class="animable"></rect><polygon points="123.65 216.96 124.49 212.92 122.82 212.92 123.65 216.96" style="fill: rgb(224, 224, 224); transform-origin: 123.655px 214.94px;" id="elowqodzz5cic" class="animable"></polygon><rect x="288.76" y="77.23" width="129.93" height="284.94" style="fill: rgb(230, 230, 230); transform-origin: 353.725px 219.7px;" id="eloyv77dejar" class="animable"></rect><rect x="290.4" y="77.23" width="134.36" height="284.94" style="fill: rgb(245, 245, 245); transform-origin: 357.58px 219.7px;" id="el2s5v0xpejyg" class="animable"></rect><g id="elwderkeavby"><rect x="226.78" y="164.18" width="261.61" height="111.04" style="fill: rgb(255, 255, 255); transform-origin: 357.585px 219.7px; transform: rotate(90deg);" class="animable"></rect></g><g id="elh27npzvc0wk"><circle cx="357.58" cy="136.83" r="38.85" style="fill: rgb(240, 240, 240); transform-origin: 357.58px 136.83px; transform: rotate(-75.86deg);" class="animable"></circle></g><circle cx="357.58" cy="136.83" r="37.04" style="fill: rgb(224, 224, 224); transform-origin: 357.58px 136.83px;" id="elr36uc5um6a" class="animable"></circle><circle cx="357.58" cy="136.83" r="10.75" style="fill: rgb(255, 255, 255); transform-origin: 357.58px 136.83px;" id="el0oeg7rx1agh" class="animable"></circle><rect x="330.22" y="179.5" width="23.11" height="23.11" style="fill: rgb(245, 245, 245); transform-origin: 341.775px 191.055px;" id="el7ep1fabi3w6" class="animable"></rect><rect x="361.83" y="179.5" width="23.11" height="23.11" style="fill: rgb(230, 230, 230); transform-origin: 373.385px 191.055px;" id="elyxp9dhf9vn" class="animable"></rect><g id="elxs3xgvq2ura"><circle cx="357.58" cy="269.24" r="38.85" style="fill: rgb(240, 240, 240); transform-origin: 357.58px 269.24px; transform: rotate(-76.49deg);" class="animable"></circle></g><g id="elwqtdhfiiebc"><circle cx="357.58" cy="269.24" r="37.04" style="fill: rgb(230, 230, 230); transform-origin: 357.58px 269.24px; transform: rotate(-80.67deg);" class="animable"></circle></g><circle cx="357.58" cy="269.24" r="10.75" style="fill: rgb(255, 255, 255); transform-origin: 357.58px 269.24px;" id="elbafexzy896" class="animable"></circle><g id="elpv25622r59"><rect x="361.83" y="311.91" width="23.11" height="23.11" style="fill: rgb(245, 245, 245); transform-origin: 373.385px 323.465px; transform: rotate(180deg);" class="animable"></rect></g><g id="elkrrjbiknpi"><rect x="330.22" y="311.91" width="23.11" height="23.11" style="fill: rgb(230, 230, 230); transform-origin: 341.775px 323.465px; transform: rotate(180deg);" class="animable"></rect></g></g><g id="freepik--Shadow--inject-40" class="animable" style="transform-origin: 250px 416.24px;"><ellipse id="freepik--path--inject-40" cx="250" cy="416.24" rx="193.89" ry="11.32" style="fill: rgb(245, 245, 245); transform-origin: 250px 416.24px;" class="animable"></ellipse></g><g id="freepik--musical-notes--inject-40" class="animable" style="transform-origin: 250.792px 165.551px;"><g id="elvwpdultbtme"><g style="opacity: 0.4; transform-origin: 250.792px 174.018px;" class="animable"><path d="M143.13,174.56a110,110,0,0,1-56.66-15.31.4.4,0,0,1-.14-.54.39.39,0,0,1,.54-.14c54.54,31.82,110.06,7.41,163.77-16.19C302.54,119.57,356.22,96,409.09,123a.39.39,0,1,1-.35.7c-52.55-26.8-106-3.28-157.79,19.45C215.55,158.66,179.36,174.56,143.13,174.56Z" style="fill: rgb(38, 50, 56); transform-origin: 247.793px 142.747px;" id="elt1fwaurpfd" class="animable"></path><path d="M143.13,190.2A109.72,109.72,0,0,1,88,175.74a.39.39,0,0,1-.15-.53.4.4,0,0,1,.54-.15c54,30.52,109,6.34,162.27-17.05,52.4-23,106.59-46.84,160-18.65a.4.4,0,0,1-.37.7c-53-28-107-4.28-159.28,18.67C215.55,174.29,179.35,190.2,143.13,190.2Z" style="fill: rgb(38, 50, 56); transform-origin: 249.313px 158.374px;" id="elgkta1rdi6c9" class="animable"></path><path d="M143.12,205.83a109.7,109.7,0,0,1-53.64-13.62.4.4,0,0,1-.15-.54.38.38,0,0,1,.53-.15c53.54,29.25,108.05,5.29,160.77-17.88,52.9-23.24,107.6-47.28,161.47-17.84a.4.4,0,0,1,.16.53.39.39,0,0,1-.53.16c-53.54-29.25-108.06-5.3-160.78,17.87C215.55,189.92,179.34,205.83,143.12,205.83Z" style="fill: rgb(38, 50, 56); transform-origin: 250.792px 174.004px;" id="elhwzxyrilu2" class="animable"></path><path d="M143.11,221.46A109.53,109.53,0,0,1,91,208.65a.41.41,0,0,1-.17-.54.4.4,0,0,1,.54-.16c53,28,107.05,4.28,159.28-18.68,53.38-23.46,108.59-47.72,163-17a.39.39,0,0,1,.15.53.4.4,0,0,1-.54.15c-54-30.52-109.06-6.34-162.27,17C215.56,205.55,179.34,221.46,143.11,221.46Z" style="fill: rgb(38, 50, 56); transform-origin: 252.319px 189.636px;" id="elpcvlxfs2vqg" class="animable"></path><path d="M143.11,237.1a109.49,109.49,0,0,1-50.62-12,.4.4,0,0,1-.17-.53.39.39,0,0,1,.53-.17c52.54,26.79,106,3.28,157.79-19.46,53.88-23.67,109.59-48.16,164.47-16.14a.39.39,0,0,1,.14.54.38.38,0,0,1-.53.14C360.18,157.62,304.65,182,251,205.62,215.56,221.18,179.33,237.1,143.11,237.1Z" style="fill: rgb(38, 50, 56); transform-origin: 253.792px 205.293px;" id="elkllk337xmgn" class="animable"></path></g></g><path d="M127.76,202a6.28,6.28,0,0,0-2.46-3.59,5.93,5.93,0,0,1-2.49-4.31l.21-.58a.39.39,0,1,0-.74-.27L114.22,216a4.48,4.48,0,0,0-1.07-1.47,8.13,8.13,0,0,0-4-1.92c-3.33-.65-6.38.59-6.8,2.76-.37,1.87,1.33,3.83,3.93,4.76a9.27,9.27,0,0,0,1.33.36,8.09,8.09,0,0,0,4.41-.28,3.49,3.49,0,0,0,2.37-2.42h0l5.66-15.91a6.28,6.28,0,0,0,2.48,3.69,6,6,0,0,1,2.53,4.58.3.3,0,0,0,.19.24h.07a.28.28,0,0,0,.31-.19l2-5.62A4.25,4.25,0,0,0,127.76,202Z" style="fill: rgb(38, 50, 56); transform-origin: 115.1px 206.832px;" id="el5hrlhcnzojt" class="animable"></path><path d="M351.3,158.07a6.25,6.25,0,0,0-4.13-1.46,6,6,0,0,1-4.57-2l-.18-.6a.4.4,0,0,0-.49-.27.4.4,0,0,0-.27.49l6.89,23.25a4.52,4.52,0,0,0-1.74-.57,8.1,8.1,0,0,0-4.37.8c-3.09,1.44-4.84,4.25-3.9,6.27.81,1.74,3.36,2.33,6,1.54a9.71,9.71,0,0,0,1.29-.49,8.1,8.1,0,0,0,3.42-2.84,3.53,3.53,0,0,0,.5-3.38h0l-4.83-16.29a6.33,6.33,0,0,0,4.21,1.53,6.06,6.06,0,0,1,4.76,2.23.31.31,0,0,0,.3.08l.07,0a.3.3,0,0,0,.14-.34l-1.71-5.75A4.18,4.18,0,0,0,351.3,158.07Z" style="fill: rgb(38, 50, 56); transform-origin: 346.348px 169.795px;" id="elk324k97d38" class="animable"></path><path d="M196.45,197.65a7.7,7.7,0,0,1,4.48,4.93.35.35,0,0,0,.31.24.14.14,0,0,0,.09,0,.38.38,0,0,0,.33-.33l.53-4.85a5.43,5.43,0,0,0-.61-3.18,8,8,0,0,0-4.11-3.73,7.58,7.58,0,0,1-4.35-4.62l.08-.79a.5.5,0,0,0-.44-.55.5.5,0,0,0-.55.45l-3.33,30.53a5.68,5.68,0,0,0-1.75-1.5,10.32,10.32,0,0,0-5.51-1.22,10.43,10.43,0,0,0-5.39,1.65,4,4,0,0,0,.3,7.37,9.45,9.45,0,0,0,3.72,1.15,10.49,10.49,0,0,0,1.78.06c4.28-.17,7.67-2.56,7.62-5.35h0l1.42-13.06a8.1,8.1,0,0,0,4.17,3.85c1.64.8,3.18,1.57,4.48,4.93a.42.42,0,0,0,.32.24h.09a.36.36,0,0,0,.32-.34l.53-4.84a5.3,5.3,0,0,0-.61-3.19,8,8,0,0,0-4.11-3.73,7.55,7.55,0,0,1-4.35-4.62l.37-3.35A8,8,0,0,0,196.45,197.65Z" style="fill: rgb(38, 50, 56); transform-origin: 188.076px 204.021px;" id="el37ygg3j2udp" class="animable"></path><path d="M168.51,183.46h0l.83-17.33.31-6.46v-.37L152,158.46l0,.36-.31,6.47-.75,15.85a6.35,6.35,0,0,0-5.39-1.67c-3.12.32-5.49,2.24-5.29,4.28.18,1.75,2.21,3,4.77,3.16a7.77,7.77,0,0,0,1.27,0c3.1-.31,5.45-2.19,5.29-4.21h0l.71-14.89,16.21.77-.63,13.39a4.15,4.15,0,0,0-1.34-1,7.54,7.54,0,0,0-4.05-.64c-3.12.32-5.49,2.23-5.29,4.27.18,1.76,2.21,3,4.77,3.17a7.77,7.77,0,0,0,1.27,0C166.31,187.37,168.67,185.48,168.51,183.46Zm-16.19-16.41.08-1.73,16.21.78-.08,1.72Z" style="fill: rgb(38, 50, 56); transform-origin: 154.949px 173.128px;" id="elakp1u73ui8o" class="animable"></path><path d="M404.82,150.12h0l1.7-13.9.63-5.18,0-.29L393,129l0,.3-.64,5.18L390.8,147.2a5.1,5.1,0,0,0-4.24-1.66c-2.53.06-4.55,1.47-4.51,3.12,0,1.42,1.6,2.58,3.65,2.83a6.84,6.84,0,0,0,1,0c2.51-.07,4.52-1.45,4.51-3.08h0l1.46-11.94,13,1.59-1.31,10.74a3.23,3.23,0,0,0-1-.9,6,6,0,0,0-3.21-.75c-2.54.07-4.56,1.47-4.52,3.12,0,1.42,1.6,2.58,3.65,2.83a6.9,6.9,0,0,0,1,0C402.82,153.13,404.82,151.75,404.82,150.12Zm-12.05-14.18.16-1.38,13,1.59-.16,1.38Z" style="fill: rgb(38, 50, 56); transform-origin: 394.6px 141.059px;" id="el67pb2y9v31m" class="animable"></path><path d="M352.79,118.15h0l-8.45-17.36-3.15-6.48L341,94l-17.69,8.61.17.36,3.16,6.48,7.72,15.88c-1.63-.63-4-.21-6.14,1.25-2.89,2-4.18,5.11-2.89,7,1.11,1.62,3.78,1.79,6.34.55a8.57,8.57,0,0,0,1.23-.72c2.85-1.95,4.14-5,2.91-6.94h0l-8.45-17.36,16.25-7.91L351.34,117c-1.63-.63-4-.21-6.15,1.25a8.45,8.45,0,0,0-3,3.45,3.27,3.27,0,0,0,3.38,4.92,7.65,7.65,0,0,0,3-.82,9.83,9.83,0,0,0,1.25-.72C352.73,123.14,354,120,352.79,118.15Z" style="fill: rgb(38, 50, 56); transform-origin: 338.278px 114.472px;" id="elr9ejvkatkip" class="animable"></path></g><g id="freepik--Character--inject-40" class="animable" style="transform-origin: 243.329px 257.418px;"><path d="M294.53,205.93c-.83,0-1.71,0-2.62-.1-6.06-.48-11.39-3.59-15.86-9.23-13.43-17-15.05-51.32-13.73-59.9l.54.08c-1.31,8.53.29,42.64,13.62,59.48,4.37,5.52,9.57,8.55,15.47,9,9.15.73,15.78-2.37,19.17-8.95,5.35-10.39,1.27-27.91-9.51-40.75-3.46-4.12-4.63-8.58-3.21-12.23a7.86,7.86,0,0,1,6.38-5c3.88-.52,7.91,1.62,11,5.86l-.44.32c-3-4.07-6.83-6.13-10.52-5.64a7.31,7.31,0,0,0-5.94,4.65c-1.35,3.47-.21,7.73,3.12,11.69,11.09,13.21,15.11,30.6,9.57,41.35C309.35,201,304.58,205.93,294.53,205.93Z" style="fill: rgb(64, 123, 255); transform-origin: 288.862px 171.315px;" id="elbfwh1b348uq" class="animable"></path><path d="M241.5,102.16c-7,3.32-16.37,5.73-13.4,18.31s-4.94,16.3,1,21.21,26.69,4.46,34.67,1.37c9-3.49,19.41-15.28,9.26-21.31-7.92-4.7-11.36-10.78-12.51-14.48C258.17,99.71,250.08,95.44,241.5,102.16Z" style="fill: rgb(38, 50, 56); transform-origin: 252.016px 122.094px;" id="el9ig8c2bgf0k" class="animable"></path><path d="M280.65,121.25c-7.71-1.57-15.44-4.43-19.7-14.6-1.71-4.08-4.42-6.65-7.65-7.23-3.65-.65-7.74,1.2-11.49,5.22l-.4-.38c3.88-4.15,8.13-6.07,12-5.37,3.42.61,6.28,3.29,8.06,7.55,4.16,9.93,11.74,12.73,19.31,14.27Z" style="fill: rgb(38, 50, 56); transform-origin: 261.095px 109.999px;" id="el0ankzkhiy2ec" class="animable"></path><path d="M277.72,158.73l.37.39.49.5c.35.33.69.68,1.07,1,.73.68,1.52,1.33,2.32,2a58.49,58.49,0,0,0,5,3.66c1.76,1.15,3.6,2.2,5.45,3.23,1,.48,1.88,1,2.85,1.46l2.24,1.07a1.42,1.42,0,0,0,1,0,6.74,6.74,0,0,0,1.89-1.06,24.14,24.14,0,0,0,4.09-4.16,85.75,85.75,0,0,0,7.11-10.8l4.19,1.71a58.61,58.61,0,0,1-5.71,13,28.43,28.43,0,0,1-4.75,6,14.34,14.34,0,0,1-3.78,2.58,9.44,9.44,0,0,1-5.64.76,9,9,0,0,1-1.46-.39l-.92-.34-1.66-.64c-1.12-.42-2.2-.93-3.29-1.4a65.64,65.64,0,0,1-6.37-3.36,62.77,62.77,0,0,1-6-4.11c-1-.77-1.9-1.56-2.82-2.42-.46-.42-.92-.87-1.37-1.33l-.67-.72c-.24-.27-.42-.47-.76-.88Z" style="fill: rgb(255, 181, 115); transform-origin: 293.19px 168.115px;" id="el86jpn80qmm" class="animable"></path><path d="M270.4,150.37c3.7-.9,13.1,11.26,13.1,11.26l-5.71,10.87S262,163.59,262.6,158.68C263.22,153.57,265,151.69,270.4,150.37Z" style="fill: rgb(64, 123, 255); transform-origin: 273.042px 161.411px;" id="eldtzo74oz2uk" class="animable"></path><g id="elb55meduhonm"><path d="M270.4,150.37c3.7-.9,13.1,11.26,13.1,11.26l-5.71,10.87S262,163.59,262.6,158.68C263.22,153.57,265,151.69,270.4,150.37Z" style="fill: rgb(255, 255, 255); opacity: 0.2; transform-origin: 273.042px 161.411px;" class="animable"></path></g><g id="el4lspk7sowtd"><path d="M272.84,154.58l-.9,14.23c3.14,2.15,5.85,3.69,5.85,3.69l1.19-2.28Z" style="opacity: 0.2; transform-origin: 275.46px 163.54px;" class="animable"></path></g><path d="M310.8,158.34l3.44-9.55,4.89,7.66s-2.74,5-6.46,5Z" style="fill: rgb(255, 181, 115); transform-origin: 314.965px 155.12px;" id="eld1v8nq5wqd6" class="animable"></path><polygon points="319.21 144.37 324.24 150.1 319.13 156.44 314.24 148.79 319.21 144.37" style="fill: rgb(255, 181, 115); transform-origin: 319.24px 150.405px;" id="elfeovtkrtsx" class="animable"></polygon><polygon points="262.21 402.49 271.12 402.84 272.71 382.14 263.8 381.79 262.21 402.49" style="fill: rgb(255, 181, 115); transform-origin: 267.46px 392.315px;" id="el9dd9ty7fp0v" class="animable"></polygon><polygon points="175.42 279.97 173.66 288.73 193.4 295.62 195.15 286.85 175.42 279.97" style="fill: rgb(255, 181, 115); transform-origin: 184.405px 287.795px;" id="el480gn1c7jry" class="animable"></polygon><path d="M175.18,290l3.4-9.45a.7.7,0,0,0-.33-.88l-7.08-3.77a1.43,1.43,0,0,0-2,.81c-1.14,3.31-1.52,5-3,9.12-.93,2.56-3.19,7.31-4.46,10.83s2.15,5,3,3.63c3.8-6.08,6.78-7.53,9.44-9.07A2.41,2.41,0,0,0,175.18,290Z" style="fill: rgb(38, 50, 56); transform-origin: 170.03px 288.27px;" id="el96vjh2wjswf" class="animable"></path><path d="M271.42,402.31l-9.67-2.71a.7.7,0,0,0-.85.4l-3.25,7.34a1.45,1.45,0,0,0,1,1.92c3.38.88,5.06,1.14,9.32,2.33,2.61.73,10.26,4.18,14,4.48s4.23-3.39,2.7-3.85a21.22,21.22,0,0,1-11.92-9A2.32,2.32,0,0,0,271.42,402.31Z" style="fill: rgb(38, 50, 56); transform-origin: 271.519px 407.828px;" id="elrfz0gwwetb" class="animable"></path><g id="el2ebvi7s9gkq"><g style="opacity: 0.2; transform-origin: 227.965px 338.055px;" class="animable"><polygon points="272.71 382.14 271.89 392.81 262.98 392.47 263.79 381.8 272.71 382.14" id="el2nnvs8sgrcv" class="animable" style="transform-origin: 267.845px 387.305px;"></polygon><polygon points="195.15 286.85 193.39 295.62 183.22 292.06 184.98 283.3 195.15 286.85" id="elglciuozjsmq" class="animable" style="transform-origin: 189.185px 289.46px;"></polygon></g></g><path d="M275.07,154.09c.86,5.06,1.69,17.82-2,47.54l-36.23,2.24c-.28-13.89-1-25.09-8.53-52a4.61,4.61,0,0,1,4.15-5.86c2.76-.16,6.23-.27,9.77-.12a121.25,121.25,0,0,1,16.67,1.52c4.7.84,9.85,2.14,12.84,2.95A4.62,4.62,0,0,1,275.07,154.09Z" style="fill: rgb(64, 123, 255); transform-origin: 251.97px 174.844px;" id="el5zmvnsup4vm" class="animable"></path><g id="el9u7ns7md5vc"><path d="M275.07,154.09c.86,5.06,1.69,17.82-2,47.54l-36.23,2.24c-.28-13.89-1-25.09-8.53-52a4.61,4.61,0,0,1,4.15-5.86c2.76-.16,6.23-.27,9.77-.12a121.25,121.25,0,0,1,16.67,1.52c4.7.84,9.85,2.14,12.84,2.95A4.62,4.62,0,0,1,275.07,154.09Z" style="fill: rgb(255, 255, 255); opacity: 0.2; transform-origin: 251.97px 174.844px;" class="animable"></path></g><path d="M273,201.63s11.29,68.3,12.38,95.54c1.14,28.34-11.6,92.78-11.6,92.78H261.73s4.41-61.52,1.63-89.25c-3-30.23-16.85-97.43-16.85-97.43Z" style="fill: rgb(64, 123, 255); transform-origin: 265.981px 295.79px;" id="ely0hrsu5qcbi" class="animable"></path><polygon points="260.68 390.39 274.87 390.39 275.91 385.86 260.02 385.31 260.68 390.39" style="fill: rgb(38, 50, 56); transform-origin: 267.965px 387.85px;" id="el285nwxryhuh" class="animable"></polygon><g id="el4zkq9i3sm2i"><path d="M258.47,219.7c10,17.35,4.91,50.45,2.51,62.8-2.74-18.15-6.84-40.29-10-56.54C251.79,216.61,253.86,211.7,258.47,219.7Z" style="opacity: 0.2; transform-origin: 257.702px 249.091px;" class="animable"></path></g><path d="M263.48,202.23s-.26,72-11.28,93.12c-13.09,25-67.38-.76-67.38-.76l2.4-12s36,8.11,45.41,1.4c10.12-31.36-8.48-58,4.18-80.16Z" style="fill: rgb(64, 123, 255); transform-origin: 224.15px 254.249px;" id="el1uupqwpxl51" class="animable"></path><polygon points="187.42 281.21 184.45 296.03 188.79 298.55 193.07 281.26 187.42 281.21" style="fill: rgb(38, 50, 56); transform-origin: 188.76px 289.88px;" id="elrf93hayovqm" class="animable"></polygon><path d="M236.85,158.07c-1.63,4.45-3.27,9-4.83,13.54s-3,9.09-4.27,13.63l-.23.85-.11.43c0,.14-.09.33-.07.22v-.47a2.17,2.17,0,0,0,0-.25,2.72,2.72,0,0,0-.1-.46,1.57,1.57,0,0,0-.09-.23A2.16,2.16,0,0,0,227,185a3.45,3.45,0,0,0-.44-.66,3,3,0,0,0-.69-.64,3.38,3.38,0,0,0-.74-.41,4.41,4.41,0,0,0-.64-.19A4,4,0,0,0,224,183a2.53,2.53,0,0,0-.77.09c-.18.07-.06.05.08,0a5.78,5.78,0,0,0,.53-.25c.4-.22.85-.49,1.3-.79,1.83-1.21,3.75-2.66,5.62-4.12,3.76-2.94,7.54-6,11.33-9.05l3.21,3.19a140.24,140.24,0,0,1-9.91,11.08,71.55,71.55,0,0,1-5.67,5.18c-.53.42-1.08.84-1.71,1.27-.33.21-.66.43-1.07.65a7.52,7.52,0,0,1-1.6.68,5.44,5.44,0,0,1-1.68.21,4.36,4.36,0,0,1-.73-.08,3.9,3.9,0,0,1-.86-.25,4.57,4.57,0,0,1-.94-.52,4.61,4.61,0,0,1-.86-.79,4.69,4.69,0,0,1-.56-.86c-.07-.14-.15-.32-.19-.43l-.12-.34a6,6,0,0,1-.15-.68,3.91,3.91,0,0,1,0-.48,5.12,5.12,0,0,1,0-.79l0-.34,0-.25c.06-.41.09-.51.12-.67l.09-.46.19-.93c1-5,2.33-9.75,3.8-14.49s3.05-9.38,4.91-14.05Z" style="fill: rgb(255, 181, 115); transform-origin: 232.267px 172.936px;" id="elkwidmx8oqba" class="animable"></path><path d="M229.55,146.48c-3.56,1.33-7.15,14.1-7.15,14.1l14.71,9.2s4.68-12.32,2.86-16.92C238.08,148.07,233.62,145,229.55,146.48Z" style="fill: rgb(64, 123, 255); transform-origin: 231.395px 157.943px;" id="elq86gx3s3qxs" class="animable"></path><g id="el8j1am8hm123"><path d="M229.55,146.48c-3.56,1.33-7.15,14.1-7.15,14.1l14.71,9.2s4.68-12.32,2.86-16.92C238.08,148.07,233.62,145,229.55,146.48Z" style="fill: rgb(255, 255, 255); opacity: 0.2; transform-origin: 231.395px 157.943px;" class="animable"></path></g><path d="M172.49,294s0,.07,0,.11a1.21,1.21,0,0,0,.94.71.72.72,0,0,0,.7-.2c.8-.81.07-4,0-4.32a.2.2,0,0,0-.17-.16.22.22,0,0,0-.21.09C173.14,291.23,172.16,293,172.49,294Zm1.36-3.1c.26,1.27.44,3,0,3.43a.32.32,0,0,1-.32.07.81.81,0,0,1-.63-.46C172.69,293.41,173,292.29,173.85,290.93Z" style="fill: rgb(64, 123, 255); transform-origin: 173.463px 292.49px;" id="elpqgqvn0ay9" class="animable"></path><path d="M173.82,290.74c.33,1.06,1.45,2.84,2.36,3a.75.75,0,0,0,.8-.47,1.1,1.1,0,0,0,0-.94c-.48-1.21-2.9-2.09-3-2.13a.2.2,0,0,0-.21,0,.24.24,0,0,0-.07.2A3,3,0,0,0,173.82,290.74Zm2.83,1.79a.66.66,0,0,1-.05.53c-.12.24-.25.25-.35.24-.62-.09-1.64-1.54-2-2.57.79.34,2.08,1,2.37,1.74A.14.14,0,0,0,176.65,292.53Z" style="fill: rgb(64, 123, 255); transform-origin: 175.392px 291.959px;" id="elf2rfy2omq8d" class="animable"></path><path d="M274.23,404.72a3.39,3.39,0,0,0,2.24.06,1.18,1.18,0,0,0,.64-.89.68.68,0,0,0-.19-.64c-.89-.88-4.82-.09-5.26,0a.23.23,0,0,0-.17.18.21.21,0,0,0,.12.21A15.47,15.47,0,0,0,274.23,404.72Zm2-1.35a.76.76,0,0,1,.36.18.27.27,0,0,1,.08.26.8.8,0,0,1-.42.59c-.65.32-2.09,0-3.91-.85A11.57,11.57,0,0,1,276.26,403.37Z" style="fill: rgb(64, 123, 255); transform-origin: 274.308px 403.89px;" id="elo9dc49ii52" class="animable"></path><path d="M271.65,403.67h.08c1.16-.17,3.71-1.46,3.82-2.48,0-.24-.05-.57-.6-.79a1.51,1.51,0,0,0-1.23,0c-1.33.59-2.18,2.86-2.22,2.95a.23.23,0,0,0,0,.21A.21.21,0,0,0,271.65,403.67Zm3-2.92.13,0c.36.15.34.3.33.35-.06.62-1.85,1.69-3.07,2a4.8,4.8,0,0,1,1.84-2.35A1.09,1.09,0,0,1,274.67,400.75Z" style="fill: rgb(64, 123, 255); transform-origin: 273.512px 401.97px;" id="elcnz81fjdx1t" class="animable"></path><path d="M236.14,201.78l-.73,3.3c-.11.26.2.5.62.47l37.29-2.3c.33,0,.59-.2.6-.4l.13-3.27c0-.22-.29-.4-.65-.37l-36.69,2.26A.65.65,0,0,0,236.14,201.78Z" style="fill: rgb(255, 255, 255); transform-origin: 254.719px 202.38px;" id="elu386m0ww8f" class="animable"></path><path d="M241.32,205.58l-1,.06c-.19,0-.35-.08-.34-.2l.2-4.25c0-.12.17-.23.37-.24l1-.07c.19,0,.35.08.34.21l-.2,4.24C241.68,205.45,241.51,205.57,241.32,205.58Z" style="fill: rgb(64, 123, 255); transform-origin: 240.935px 203.26px;" id="elaouuic1a9ip" class="animable"></path><path d="M270.58,203.77l-1,.06c-.19,0-.35-.08-.34-.2l.2-4.24c0-.13.17-.24.36-.25l1-.06c.19,0,.35.08.34.2l-.2,4.24C270.94,203.65,270.78,203.76,270.58,203.77Z" style="fill: rgb(64, 123, 255); transform-origin: 270.19px 201.455px;" id="el29t9p2667ca" class="animable"></path><path d="M256,204.67l-1,.07c-.2,0-.35-.08-.35-.21l.2-4.24c0-.13.17-.24.37-.25l1-.06c.2,0,.35.08.35.2l-.2,4.25C256.31,204.55,256.15,204.66,256,204.67Z" style="fill: rgb(64, 123, 255); transform-origin: 255.61px 202.36px;" id="els942rmfz23d" class="animable"></path><path d="M242.2,146a121.29,121.29,0,0,1,16.67,1.51c2,.35,4.1.8,6.07,1.25h0c1.05,3.25,1.78,9.89-1.15,15.37a8.3,8.3,0,0,0-4.61-4.68,14,14,0,0,0-3.64,5.53c-3.89-.7-14.36-9.79-19.14-17.11l-1.24-1.89C237.33,145.85,239.75,145.84,242.2,146Z" style="fill: rgb(255, 255, 255); transform-origin: 250.511px 155.431px;" id="elwps1w73g99" class="animable"></path><path d="M242.71,127.63c1.38,5.37,3,15.13-.51,18.31,0,0,1.8,5.49,11.76,6.39,11,1,4.91-4.87,4.91-4.87-6.07-2-6.18-6.3-5.39-10.31Z" style="fill: rgb(255, 181, 115); transform-origin: 251.376px 140.037px;" id="el677tw5d0qn" class="animable"></path><path d="M242.21,146a118.1,118.1,0,0,1,16.66,1.51l1.09.2c1.49,2.6,1.94,5.55-.91,10.85,0,0-14.85-6.21-19-12.62Z" style="fill: rgb(255, 181, 115); transform-origin: 250.594px 152.25px;" id="el2wk374lpzho" class="animable"></path><g id="elvkvgkicbuum"><path d="M247.1,131.52l6.37,5.63a15.48,15.48,0,0,0-.33,2.86c-2.31-.53-6.11-2.82-6.5-5.2A8.18,8.18,0,0,1,247.1,131.52Z" style="opacity: 0.2; transform-origin: 250.046px 135.765px;" class="animable"></path></g><path d="M235.64,121.15c3.17,8.29,4.33,11.87,10,14.87,8.47,4.51,18-1.19,17.33-10.25-.56-8.16-5.64-20.34-15-21.12A12.1,12.1,0,0,0,235.64,121.15Z" style="fill: rgb(255, 181, 115); transform-origin: 248.898px 121.1px;" id="elwi12vpud49" class="animable"></path><path d="M248.64,121.78l-.74-.08a4.32,4.32,0,0,1,1.46-2.48,1.32,1.32,0,0,1,2.25.67l-.71.23a.72.72,0,0,0-.42-.53.78.78,0,0,0-.66.21A3.66,3.66,0,0,0,248.64,121.78Z" style="fill: rgb(38, 50, 56); transform-origin: 249.755px 120.297px;" id="el97lcjygdrqd" class="animable"></path><path d="M257,117.9a1.43,1.43,0,0,1,1.39-1.71,1.88,1.88,0,0,1,1.85,1.06l-.65.36a1.15,1.15,0,0,0-1.14-.68.83.83,0,0,0-.58.26.79.79,0,0,0-.13.62Z" style="fill: rgb(38, 50, 56); transform-origin: 258.606px 117.042px;" id="el64ir1w1khe4" class="animable"></path><path d="M255.59,118.73a19.13,19.13,0,0,0,3.83,3.63,3.13,3.13,0,0,1-2.31,1.23Z" style="fill: rgb(237, 137, 62); transform-origin: 257.505px 121.16px;" id="elr0jg4fnbed" class="animable"></path><path d="M254.2,127.46a6.25,6.25,0,0,0,1-.25.2.2,0,0,0,.13-.26.22.22,0,0,0-.26-.14,5.66,5.66,0,0,1-5.11-.74.21.21,0,0,0-.27.33A6,6,0,0,0,254.2,127.46Z" style="fill: rgb(38, 50, 56); transform-origin: 252.477px 126.782px;" id="el79mwlyoods7" class="animable"></path><path d="M235.44,128.7a6.53,6.53,0,0,0,4.31,2.45c2.26.26,3-1.84,2.11-3.79-.83-1.75-3-4-5.13-3.36A2.91,2.91,0,0,0,235.44,128.7Z" style="fill: rgb(255, 181, 115); transform-origin: 238.468px 127.53px;" id="ell3rguh5b2" class="animable"></path><path d="M250,104.61c6.54,4.83-1.71,5.45-5.85,9-4,3.41-.91,9-7.69,11.24a26.51,26.51,0,0,1-6.32.73s3.14-6.14,2.14-9.83S242.51,99,250,104.61Z" style="fill: rgb(38, 50, 56); transform-origin: 241.288px 114.405px;" id="elh820q83215r" class="animable"></path><path d="M248.88,103.91c1.39,3,4.85,2.39,7.62,5.45,1.7,1.87,4.45-4.44.07-6.62S246.7,99.21,248.88,103.91Z" style="fill: rgb(38, 50, 56); transform-origin: 253.657px 105.223px;" id="eli32eyv156o8" class="animable"></path><path d="M241.77,126.35c.93,3.53.53,6.7-3,7.63a6.62,6.62,0,1,1-3.35-12.81C238.94,120.25,240.84,122.81,241.77,126.35Z" style="fill: rgb(64, 123, 255); transform-origin: 236.335px 127.589px;" id="eldpfuli04owi" class="animable"></path><path d="M241.92,101.84l-4.33,2.1c-8.39,6.81-3.59,19.29-3.59,19.29l3.27-1.49S233.53,108.64,241.92,101.84Z" style="fill: rgb(64, 123, 255); transform-origin: 237.277px 112.535px;" id="el34iyh655vfc" class="animable"></path><path d="M234,123.5l-.11,0a.28.28,0,0,1-.15-.15c-.05-.13-4.77-12.75,3.67-19.6l4.39-2.14a.27.27,0,0,1,.35.1.28.28,0,0,1-.05.36c-8.16,6.62-4.6,19.48-4.56,19.61a.3.3,0,0,1-.15.33l-3.28,1.49Zm6.4-20.62-2.69,1.31c-7.41,6-4.18,16.81-3.56,18.67l2.8-1.28C236.53,119.91,234.25,109.41,240.4,102.88Z" style="fill: rgb(64, 123, 255); transform-origin: 237.287px 112.541px;" id="el05gnodzb0n3q" class="animable"></path><g id="eln4g0y5mxumf"><path d="M238,127.33c.71,2.73.61,5.13-1.5,5.68s-4.39-1.22-5.11-3.95.41-5.4,2.52-6S237.31,124.6,238,127.33Z" style="fill: rgb(255, 255, 255); opacity: 0.3; transform-origin: 234.785px 128.034px;" class="animable"></path></g><path d="M245.07,118.89a.41.41,0,0,0,.31-.38c.12-2,2.26-3.3,2.28-3.31a.42.42,0,1,0-.44-.72c-.11.06-2.53,1.59-2.68,4a.42.42,0,0,0,.39.45Z" style="fill: rgb(38, 50, 56); transform-origin: 246.2px 116.674px;" id="elv3mt3e1lu0a" class="animable"></path><path d="M259.29,111.87a.41.41,0,0,0,.36-.21.42.42,0,0,0-.15-.58,4.22,4.22,0,0,0-3.86-.26.42.42,0,0,0,.38.76h0a3.32,3.32,0,0,1,3.05.24A.59.59,0,0,0,259.29,111.87Z" style="fill: rgb(38, 50, 56); transform-origin: 257.558px 111.171px;" id="elzv7o3vkfd6" class="animable"></path><path d="M241,170.8l-1.44-9.55,7.74,4.75s-.27,5.74-3.62,7.33Z" style="fill: rgb(255, 181, 115); transform-origin: 243.43px 167.29px;" id="elgaqvxf8cp" class="animable"></path><polygon points="242.32 156.42 249.55 159.04 247.33 166 239.59 161.25 242.32 156.42" style="fill: rgb(255, 181, 115); transform-origin: 244.57px 161.21px;" id="elgewmqldorab" class="animable"></polygon><g id="el6ehvk1owmp5"><rect x="314.94" y="144.03" width="6.82" height="13.82" rx="0.57" style="fill: rgb(64, 123, 255); transform-origin: 318.35px 150.94px; transform: rotate(-36.93deg);" class="animable"></rect></g><g id="el3yf9u83f3qj"><rect x="314.37" y="145.65" width="5.67" height="7.56" rx="0.46" style="fill: rgb(255, 255, 255); transform-origin: 317.205px 149.43px; transform: rotate(-36.93deg);" class="animable"></rect></g><path d="M317.88,156.5l-.06-1.25,1.27-.75a8,8,0,0,0,1.77-1.41l.44-.46-.28-.41a1.24,1.24,0,0,0-1.42-.47l-1.07.36-5.37.73,0,2.28,1.72,2.35Z" style="fill: rgb(255, 181, 115); transform-origin: 317.23px 154.577px;" id="elfr68i5v2qs" class="animable"></path></g><defs>     <filter id="active" height="200%">         <feMorphology in="SourceAlpha" result="DILATED" operator="dilate" radius="2"></feMorphology>                <feFlood flood-color="#32DFEC" flood-opacity="1" result="PINK"></feFlood>        <feComposite in="PINK" in2="DILATED" operator="in" result="OUTLINE"></feComposite>        <feMerge>            <feMergeNode in="OUTLINE"></feMergeNode>            <feMergeNode in="SourceGraphic"></feMergeNode>        </feMerge>    </filter>    <filter id="hover" height="200%">        <feMorphology in="SourceAlpha" result="DILATED" operator="dilate" radius="2"></feMorphology>                <feFlood flood-color="#ff0000" flood-opacity="0.5" result="PINK"></feFlood>        <feComposite in="PINK" in2="DILATED" operator="in" result="OUTLINE"></feComposite>        <feMerge>            <feMergeNode in="OUTLINE"></feMergeNode>            <feMergeNode in="SourceGraphic"></feMergeNode>        </feMerge>            <feColorMatrix type="matrix" values="0   0   0   0   0                0   1   0   0   0                0   0   0   0   0                0   0   0   1   0 "></feColorMatrix>    </filter></defs></svg>